<svg width="43" height="43" viewBox="0 0 43 43" fill="none" xmlns="http://www.w3.org/2000/svg"><path d="M18.127 16.44h7.502c1.386.296-2.127.37-.712.37.307 0 .44-.015.63.252.223.314.513.737.513 1.133 0 2.081.43 4.187.233 6.26-.042.442-.145.876-.168 1.32-.022.44-.002.923-.092 1.356-.108.522-.248 1.038-.383 1.554-.257.977-.916 1.916-1.407 2.796-.516.924-1.313 1.85-1.646 2.871-.174.533-.2 1.121-.394 1.643-.216.584-.578.745-1.146.893-.1.026-.18.063-.233.154-.045.08-.303.034-.376.034-1.732 0-3.434.098-5.161.199-1.256.073-2.514.048-3.772.048-1.286 0-2.598.08-3.88-.007-.746-.05-1.367-.456-1.903-.945-.537-.49-1.14-1.044-1.232-1.803-.085-.699-.217-1.388-.336-2.081-.144-.843-.027-1.73-.144-2.584-.198-1.457-.542-2.898-.564-4.374-.01-.696-.03-1.402.003-2.098.035-.718.192-1.425.274-2.139.12-1.04.01-2.092.198-3.12.055-.3.289-.554.541-.713.232-.146.478-.28.753-.28 1.285 0 2.576-.218 3.854-.336 1.715-.158 3.432-.115 5.15-.188 1.309-.055 2.585-.216 3.898-.216z" fill="#FBEFAF"/><path d="M36.82 36.18c.169.402.28.72.285 1.154-.295.464-.622.73-1.124.602-.871-.222-1.661-.471-2.566-.471-1.128 0-2.248.066-3.371.173-.462.044-.926.029-1.387.089-.764.1-1.5.264-2.276.291-.778.027-1.6.044-2.364-.13-.611-.14-.797-.445-.806-1.056-.024-1.785.47-3.7 1.184-5.324a8.208 8.208 0 0 1 1.738-2.53c.57-.574 1.202-1.087 1.803-1.628.35-.317.69-.663 1.073-.941.228-.166.404-.207.674-.207h.008c.345 0 .695 0 .998.192.214.137.42.28.635.417.293.187.514.438.7.729a36.59 36.59 0 0 1 1.423 2.45c.734 1.368 1.66 2.627 2.387 4 .373.704.679 1.454.987 2.19z" fill="#FFDEE2" stroke="#FFDEE2" stroke-linecap="round" stroke-linejoin="round"/><path d="M24.487 15.255c0 .124-.008.278 0 .433-.27.053-.608.054-.828.07-.393.03-.807-.058-1.204-.058-.779 0-1.22.028-1.232-.883-.025-1.744-.191-3.864-1.571-5.113-.46-.416-1.27-.595-1.859-.595-2.242 0-3.563 1.829-4.21 3.758-.303.905-.581 1.816-.67 2.772-.008.084.035.356-.096.37-.27.027-.58-.06-.849-.09-.643-.071-1.333-.015-1.902-.376-.354-.225-.312-.305-.254-.746.169-1.28.607-2.553.942-3.796.278-1.033.626-2.24 1.208-3.152.273-.428.612-.894 1.06-1.15.54-.307 1.13-.492 1.701-.729.569-.235 1.296-.557 1.914-.557 1.296 0 2.444.297 3.675.711.988.333 2.082.846 2.546 1.825.303.636.657 1.25.863 1.926.216.71.41 1.428.609 2.143.287 1.033.157 2.175.157 3.237z" fill="#FBEFAF"/><path d="M28.491 16.809c-1.248 0-2.39-.12-3.593-.435-.485-.126-.41-.752-.41-1.119 0-1.062.129-2.204-.158-3.237-.198-.715-.393-1.434-.61-2.143-.205-.675-.56-1.29-.862-1.926-.464-.979-1.558-1.492-2.546-1.825-1.231-.414-2.379-.711-3.675-.711-.618 0-1.345.322-1.914.557-.57.237-1.16.422-1.7.73-.45.255-.788.721-1.061 1.15-.582.911-.93 2.118-1.208 3.151-.335 1.244-.773 2.516-.942 3.796-.058.441-.1.521.254.746.569.361 1.259.305 1.902.376.268.03.578.117.85.09.13-.014.087-.286.095-.37.089-.956.367-1.867.67-2.772.647-1.93 1.968-3.758 4.21-3.758.589 0 1.399.18 1.859.595 1.38 1.249 1.546 3.37 1.57 5.113.013.911.454.883 1.232.883.398 0 .812.088 1.205.058.32-.023.887-.015 1.136-.181" stroke="#000" stroke-linecap="round" stroke-linejoin="round"/><path d="M39.099 37.565c-.103-1.772-1.123-3.544-1.77-5.18-.68-1.737-1.326-3.475-2.074-5.18-.953-2.18-3.13-4.429-5.578-3.168-.034-2.01.068-4.021-.136-5.997-.102-1.125-.647-2.147-1.633-2.488a.949.949 0 0 0-.612-.204c-.646 0-1.293.034-1.94.034C25.8 10.1 23.419 3.864 17.33 3.455c-2.62-.17-5.068 1.09-6.429 3.306-1.599 2.657-1.53 5.86-2.245 8.791-1.02 0-2.007.102-2.823.511-1.667.784-1.53 2.76-1.53 4.328.034 2.453.034 4.94.068 7.394 0 2.045-.103 4.157.374 6.168.918 3.987 4.251 4.975 7.925 5.077.102 0 .204 0 .306-.034 3.707.136 7.38 0 11.054-.409.17.17.375.273.647.307h.136c.136.034.238.034.374.034 2.687.272 5.408.409 8.095.443 1.7 0 4.218.51 5.408-.988.272-.137.443-.41.409-.818zm-22.892-32.1c5.442-.68 7.653 5.487 7.11 9.917-.545 0-1.123.034-1.668.034-.136-1.909.375-3.817-.408-5.623-.646-1.533-2.04-2.453-3.707-2.42-4.218.137-5 4.84-4.966 8.213h-.782c-.34 0-.715 0-1.089-.034.782-3.816.714-9.473 5.51-10.086zm-1.564 10.087c-.034-2.283.238-6.679 3.401-6.1 1.36.273 1.633 1.704 1.667 2.897.034 1.056-.068 2.079-.034 3.1l-5.034.103zm-2.45 21.434c-.135 0-.237 0-.306.034-1.36-.069-2.857-.205-3.877-1.159-1.225-1.124-1.463-2.862-1.565-4.43-.17-3.646-.068-7.36-.102-11.04 0-1.09-.068-2.25 1.19-2.692.715-.239 1.838-.034 2.586-.068l5.714-.103c3.606-.034 7.177-.102 10.783-.17.102.034.204.034.34.034.918-.034.578 3.646.578 4.191.034 1.363.102 2.692.204 4.055 0 .068 0 .103.034.17-.34.444-.646.92-.918 1.364-1.02 1.5-1.871 3.135-2.585 4.804-.579 1.33-1.361 3.203-1.191 4.771-3.64.307-7.279.409-10.884.239zm22.076.374c-1.089 0-2.211 0-3.3-.034a98.399 98.399 0 0 1-5.476-.34c-.068-.137-.17-.239-.272-.341-.953-2.181 3.64-9.848 5.204-10.7 2.347-1.295 3.503 3.305 4.082 4.77.408 1.057.85 2.113 1.258 3.17.408.988 1.089 2.249 1.293 3.373-.374.34-2.313.102-2.79.102z" fill="#000"/><path d="M31.922 29.353c.034-1.33-2.007-1.33-2.041 0a9.2 9.2 0 0 0 .306 2.726c.34 1.26 2.313.75 1.973-.546a9.316 9.316 0 0 1-.238-2.18zm-1.055 4.429c-1.327 0-1.327 2.045 0 2.045 1.293 0 1.326-2.044 0-2.044zM18.826 21.413a1.182 1.182 0 0 0-.68-.34c-1.633-.137-3.47.17-4.048 1.942-.476 1.499.375 3.032 1.701 3.714-.068 1.43-.102 2.828-.17 4.26-.068 1.328 1.973 1.328 2.04 0 .069-1.296.103-2.59.17-3.886 1.157-.136 2.212-.817 2.756-1.874.816-1.567.204-3.714-1.769-3.816zm-.68 3.544a1.489 1.489 0 0 1-1.7-.205c-.443-.374-.647-1.124-.069-1.465.443-.272 1.123-.204 1.633-.136.267.016.482.231.697.446.215.645-.39 1.258-.56 1.36z" fill="#000"/></svg>