<svg width="38" height="38" viewBox="0 0 38 38" fill="none" xmlns="http://www.w3.org/2000/svg"><g clip-path="url(#a)"><path d="M10.07 31.587v1.856c.483 0 2.152-.377 2.505-.727.287-.284.564-.58.86-.854.889-.817 2.052-1.321 3.084-1.925.988-.579 2.215-1.19 3.009-2.05.143-.155.215-.316.44-.275.409.074.768.326 1.115.54 1.472.906 2.908 1.896 4.328 2.881 1.007.699 2.018 1.463 3.115 2.018.047.024.688.317.72.187.032-.136-.026-.409-.032-.532a27.39 27.39 0 0 1-.032-1.168 12.97 12.97 0 0 0-.226-2.25c-.39-2.076-.7-4.16-1.354-6.173-.16-.493-.472-.988-.004-1.33.983-.718 1.785-1.606 2.656-2.452 1.566-1.52 3.351-2.863 4.818-4.48.245-.27.014-.196-.215-.165-.57.078-1.188.219-1.763.113-.346-.064-.678-.176-1.027-.23-2.336-.358-4.73-.587-7.083-.793-.214-.019-1.242.082-1.457-.159-.297-.335-.45-.893-.63-1.284-.97-2.089-2.006-4.26-3.556-5.99-.252-.28-.591-.624-.939-.803-.062-.033-.059-.037-.08.01a15.998 15.998 0 0 1-.816 1.584c-.45.75-.998 1.447-1.368 2.243-.381.819-.493 1.714-.819 2.547-.193.493-.612 1.1-.592 1.644.003.077-.118.11-.18.126h-.004c-.514.138-.925.442-1.39.7-1.922 1.065-4.124 1.29-6.264 1.6-.276.04-2.471.183-2.331.477.214.449.652.799.99 1.15.327.337.635.675.996.977.71.595 1.44 1.152 2.158 1.732.42.339.837.679 1.15 1.118.447.625 1.137 1.085 1.348 1.876.053.2-.043.33-.05.515-.04 1.107-.235 2.126-.43 3.224-.267 1.5-.65 2.994-.65 4.522z" fill="#FBEFAF" stroke="#FBEFAF" stroke-linecap="round" stroke-linejoin="round"/><path d="M18.76 30.654c-.983 1.598-1.32 3.997-1.137 5.842.123 1.476 2.334 1.168 2.518-.123.215-1.722-.092-4.12-.921-5.658-.123-.184-.368-.215-.46-.061zm17.655-7.472c-1.504-.83-3.869-1.415-5.619-1.2-.184.031-.307.247-.184.4 1.136 1.507 3.224 2.675 5.005 3.198 1.443.4 1.965-1.752.798-2.398zM6.753 23.12c-1.75-.215-4.084.37-5.588 1.2-1.136.645-.645 2.798.798 2.398 1.781-.523 3.87-1.722 5.005-3.198.092-.184-.03-.4-.215-.4z" fill="#1D1D1B"/><path d="M27.664 20.968c2.426-2.552 4.852-5.074 7.277-7.626.676-.707.123-1.722-.737-1.814-3.439-.369-6.908-.769-10.348-1.138a1384.338 1384.338 0 0 1-5.035-9.317c-.215-.369-.522-.522-.83-.522-.368-.093-.767.061-.982.522-.737 1.63-1.474 3.29-2.21 4.92-.523 1.2-1.075 2.368-1.597 3.567-.185.37-.4.769-.522 1.2 0 .03 0 .03-.031.06h-.03c-.43.031-.86.155-1.29.247-1.229.215-2.457.461-3.685.676-1.812.338-3.654.646-5.466.984-.767.154-1.013 1.26-.46 1.784 2.61 2.367 5.22 4.766 7.86 7.133-.46 3.444-.92 6.888-1.412 10.332-.123.86.675 1.691 1.566 1.2 3.04-1.754 6.11-3.476 9.15-5.228 3.07 1.476 6.203 2.982 9.365 4.49.86.399 1.75-.278 1.567-1.2-.738-3.413-1.444-6.857-2.15-10.27zM20.54 26.38c-.491-.246-1.197-.738-1.75-.738-.583 0-1.228.553-1.72.83-1.074.615-2.18 1.23-3.254 1.845a184.788 184.788 0 0 1-3.347 1.906c.153-1.23.338-2.46.491-3.69.154-1.23.338-2.49.491-3.72.062-.523.338-1.384.185-1.907-.154-.553-.86-1.014-1.29-1.383-.921-.83-1.842-1.692-2.764-2.522-.951-.891-1.934-1.752-2.886-2.644l3.593-.646c1.259-.215 2.518-.461 3.777-.676.552-.093 1.443-.093 1.903-.462.46-.338.645-1.137.86-1.63.522-1.137 1.044-2.305 1.566-3.443a383.069 383.069 0 0 1 1.566-3.475c.614 1.138 1.228 2.306 1.842 3.444.584 1.107 1.167 2.214 1.781 3.29.277.492.522 1.261 1.014 1.569.46.276 1.35.245 1.873.307 1.228.123 2.487.277 3.715.4 1.228.123 2.487.276 3.715.4-.89.922-1.78 1.844-2.64 2.767-.86.891-1.72 1.814-2.58 2.706-.368.4-1.044.891-1.197 1.445-.154.553.153 1.353.276 1.906.246 1.23.522 2.46.768 3.66.246 1.23.522 2.49.768 3.72a171.515 171.515 0 0 0-3.409-1.63 167.35 167.35 0 0 0-3.347-1.63z" fill="#1D1D1B"/><path d="M9.947 8.023c.184.03.399-.154.307-.37-.798-1.937-2.671-3.843-4.422-4.98-1.381-.892-2.548 1.26-1.504 2.306 1.381 1.383 3.715 2.736 5.619 3.044zm16.458.246c1.935-.339 4.268-1.691 5.62-3.044 1.043-1.046-.123-3.198-1.505-2.307-1.75 1.107-3.623 3.045-4.422 4.982-.092.215.123.4.307.369z" fill="#1D1D1B"/></g><defs><clipPath id="a"><path fill="#fff" transform="translate(.52 .52)" d="M0 0h36.54v36.96H0z"/></clipPath></defs></svg>