<svg width="50" height="50" viewBox="0 0 50 50" fill="none" xmlns="http://www.w3.org/2000/svg">
<path d="M13.4759 24.1371C13.152 24.1951 12.8408 24.3097 12.5566 24.4757C12.1287 24.716 11.7425 25.0242 11.413 25.3881C11.2878 25.5081 11.1926 25.6559 11.1351 25.8195C11.0776 25.9832 11.0594 26.1581 11.0821 26.3301C10.7401 27.2168 12.0602 28.4898 12.5824 29.016C12.731 29.1902 12.9407 29.301 13.1683 29.3257C13.3959 29.3503 13.6244 29.2869 13.8068 29.1485C14.4717 28.6922 15.077 28.1545 15.6086 27.5479C16.1859 26.79 15.6491 26.113 15.171 25.4875C14.7371 24.9282 14.318 24.0599 13.4759 24.1371ZM13.9282 26.8599C13.8142 26.9739 13.6928 27.077 13.5605 27.1837L13.384 27.3272C13.2001 27.1101 13.0163 26.8893 12.8287 26.6796C12.9758 26.5508 13.1266 26.4184 13.2773 26.3117L13.5605 26.0762C13.6377 26.1682 13.7149 26.2638 13.7848 26.3595C13.8546 26.4552 13.9723 26.606 14.0569 26.7274C14.0054 26.7863 13.9686 26.8341 13.9282 26.8599Z" fill="black"/>
<path d="M23.5401 26.0762C21.9665 27.1569 20.4576 28.3289 19.021 29.5863C17.973 30.4656 16.4323 31.2788 16.1345 32.699C16.1219 32.8101 16.1534 32.9216 16.2222 33.0097C16.2909 33.0977 16.3915 33.1553 16.5022 33.17C17.973 33.17 19.0761 31.8528 20.1793 30.9918C21.7091 29.8513 23.1714 28.6227 24.5587 27.3124C24.6398 27.2455 24.707 27.1633 24.7563 27.0704C24.8057 26.9775 24.8363 26.8758 24.8464 26.771C24.8564 26.6663 24.8458 26.5606 24.815 26.46C24.7843 26.3594 24.7341 26.2659 24.6672 26.1847C24.6003 26.1035 24.5181 26.0363 24.4253 25.9869C24.3324 25.9376 24.2308 25.907 24.1261 25.8969C24.0215 25.8868 23.9159 25.8974 23.8153 25.9282C23.7148 25.959 23.6213 26.0092 23.5401 26.0762Z" fill="black"/>
<path d="M26.879 11.1012C25.4748 11.9233 24.2008 12.9501 23.0989 14.1477C22.4076 14.8836 23.5696 15.7004 24.2719 15.2515C25.6013 14.444 26.8044 13.4448 27.8424 12.2859C28.3461 11.7267 27.5592 10.7222 26.879 11.1012Z" fill="black"/>
<path d="M16.311 23.7288C16.6787 24.0968 16.7632 24.6045 17.0464 25.0276C17.3295 25.4508 17.9804 25.1601 18.076 24.7259C18.3187 23.6221 16.5757 21.5249 15.4358 22.3785C15.3788 22.4286 15.3387 22.495 15.3209 22.5688C15.3031 22.6426 15.3086 22.72 15.3365 22.7906C15.5093 23.2248 15.9984 23.405 16.311 23.7288Z" fill="black"/>
<path d="M17.7965 22.1724C18.3244 22.6845 18.7228 23.3152 18.9585 24.0121C19.2122 24.7148 20.2933 24.2476 20.0248 23.5485C19.726 22.7536 19.2478 22.0384 18.6275 21.4586C18.1532 21.0244 17.4361 20.5167 16.7706 20.7227C16.7146 20.7478 16.6705 20.7937 16.6479 20.8507C16.6252 20.9078 16.6257 20.9714 16.6492 21.0281C16.8699 21.5248 17.4141 21.8081 17.7965 22.1724Z" fill="black"/>
<path d="M43.5988 23.3571C43.1276 22.9065 42.6264 22.4886 42.0985 22.1061C41.3631 21.5211 41.0432 20.8735 40.521 20.1045C40.3262 19.8175 40.1092 19.5305 39.8812 19.2399C39.8198 18.8065 39.6587 18.3934 39.4106 18.033C38.4545 16.5613 37.2631 15.1889 36.1747 13.8091L32.7807 9.51896C31.821 8.30477 30.9422 6.82199 29.7398 5.81384C27.9968 4.32737 26.1693 5.51949 24.5918 6.80359C23.3048 4.75786 20.889 3.26404 18.4805 4.39728C16.4838 5.35024 16.1712 7.08322 16.5978 8.81253C15.4321 8.29373 14.226 8.11712 12.9722 8.97442C11.5491 9.94209 11.1924 11.4175 11.3175 12.9334C10.4962 12.7204 9.63386 12.7237 8.81425 12.9429C7.99464 13.1621 7.24567 13.5898 6.64017 14.1844C4.55893 16.2228 4.80162 19.5452 6.89389 21.4328C6.07758 22.1686 5.26861 22.9217 4.467 23.6919C4.36593 23.79 4.28037 23.9029 4.21328 24.0267C4.1 24.1378 4.02692 24.2834 4.00562 24.4407C3.98431 24.5979 4.01597 24.7578 4.09562 24.895C5.65839 27.9857 8.14043 30.7526 10.3467 33.3797C11.3934 34.6061 12.4708 35.8142 13.5789 37.0039C14.3437 37.817 15.1637 38.792 16.3772 38.7957C17.1485 38.7482 17.8804 38.4379 18.451 37.9163C18.8096 38.7988 19.2209 39.6589 19.6829 40.4919C20.5249 42.2727 21.3596 43.991 22.5657 45.5584C23.246 46.4414 24.6837 45.9705 24.4263 44.7747C23.9919 42.9945 23.3643 41.2672 22.5547 39.6236C22.0436 38.5198 21.6538 37.0039 20.797 36.0583C21.7776 35.2758 22.7508 34.4933 23.7167 33.7108C26.3421 31.6025 28.9382 29.4538 31.5415 27.3198C32.0858 28.5658 32.6361 29.8095 33.1926 31.0506C31.6813 32.1544 30.8539 34.1634 30.2104 35.8816C29.475 37.8648 29.0448 40.3999 30.0964 42.3353C30.6186 43.2919 32.1225 42.8467 32.1225 41.787C32.1225 39.6861 32.0012 37.9642 33.0492 36.0362C33.8213 34.6196 35.0054 33.4974 35.34 31.9226C35.4903 31.75 35.587 31.5373 35.6183 31.3106C35.6497 31.0838 35.6143 30.8528 35.5165 30.6459C34.8031 29.0822 34.0162 27.5 33.2771 25.8958C32.956 25.2041 32.6484 24.5087 32.3542 23.8096C31.8517 22.6286 31.4207 21.4183 31.0635 20.1855C30.773 19.1442 30.5083 17.8123 31.6776 17.1721C32.413 16.7784 33.2514 17.0028 33.9133 17.3818C35.0605 18.033 36.0055 19.1332 36.9211 20.1339C37.1197 20.3473 37.3183 20.5608 37.5132 20.7631C37.8515 21.109 38.1934 21.4254 38.5317 21.7381C39.3266 22.4222 40.042 23.1936 40.6644 24.0378C41.0873 24.6522 41.5984 25.2041 42.0434 25.8039C42.5819 26.5541 43.0369 27.361 43.4002 28.2102C43.9444 29.4023 44.1356 30.7857 45.0733 31.7203C45.1611 31.804 45.2688 31.8639 45.3863 31.8941C45.5038 31.9244 45.6271 31.924 45.7443 31.893C45.8616 31.862 45.969 31.8014 46.0562 31.7171C46.1435 31.6327 46.2076 31.5274 46.2426 31.4112C47.1876 28.935 45.3307 25.1452 43.5988 23.3571ZM20.1499 6.23697C21.367 5.98309 22.5216 6.85878 23.5659 7.6572C23.4115 7.7823 23.2644 7.90372 23.1173 8.02514C22.073 8.83215 21.0299 9.64406 19.9881 10.4609C18.9879 9.01121 17.7855 6.73 20.1499 6.23697ZM14.8659 11.0201C15.8035 10.8362 16.8331 11.5831 17.7708 12.2123C16.6088 13.137 15.4505 14.0789 14.2959 15.038C13.7701 13.6251 12.9611 11.3881 14.8659 11.0165V11.0201ZM12.3765 16.4656C12.403 16.4989 12.4326 16.5297 12.4647 16.5576C11.1924 17.6271 9.93609 18.7149 8.69568 19.8212C5.71354 17.1978 9.85764 13.2241 12.3765 16.4656ZM31.1591 14.6995C30.4252 15.0324 29.7945 15.5569 29.3331 16.2179C28.8718 16.8789 28.5969 17.6521 28.5373 18.4562C28.5112 19.5291 28.7052 20.596 29.1073 21.591C27.7691 22.3973 26.551 23.3882 25.489 24.5345C24.7977 25.2703 25.9597 26.0835 26.6657 25.6383C27.7953 24.9456 28.8373 24.1191 29.7692 23.1768C29.9824 23.6551 30.1957 24.1261 30.3869 24.5823C30.4715 24.7773 30.5598 24.9723 30.6443 25.171C26.6093 28.4726 22.5841 31.7804 18.5687 35.0943C18.0613 35.5137 17.4656 36.2533 16.8515 36.4998C15.855 36.9045 15.3145 35.9516 14.7225 35.3113C13.7027 34.1928 12.7025 33.051 11.7219 31.8859C9.98266 29.8107 8.45299 27.5221 6.7321 25.4249C6.7321 25.3881 6.71372 25.3513 6.69901 25.3145C6.63282 25.1342 6.56663 24.9466 6.49677 24.8031C10.5416 21.2451 14.5864 17.6761 18.782 14.2911C21.0765 12.4514 23.4225 10.6706 25.7685 8.89347C26.3003 8.42061 26.871 7.99351 27.4747 7.61673C28.1365 7.28191 28.3057 7.61673 28.7249 8.09873C29.7398 9.24301 30.6296 10.4793 31.5783 11.664L33.7331 14.3904C32.8651 14.1951 31.9563 14.3042 31.1591 14.6995V14.6995Z" fill="black"/>
</svg>
