<svg width="50" height="50" viewBox="0 0 50 50" fill="none" xmlns="http://www.w3.org/2000/svg">
<path d="M17.3997 34.5429C16.4063 33.9047 14.8446 34.1482 14.4868 35.4287C14.0196 37.1081 16.12 38.3676 17.5091 37.5279C17.9065 37.2841 18.1905 36.8927 18.2987 36.44C18.4068 35.9873 18.3302 35.5103 18.0858 35.1139C18.0316 35.0283 17.9711 34.9469 17.9048 34.8704C17.7575 34.7318 17.5864 34.6209 17.3997 34.5429V34.5429Z" fill="black"/>
<path d="M26.1255 9.91509C25.2065 9.46101 24.2334 9.12525 23.2295 8.91587C22.5476 8.74794 21.6889 8.69336 21.1249 9.15938C21.1023 9.17938 21.0863 9.20566 21.0788 9.23483C21.0713 9.26401 21.0727 9.29475 21.0828 9.32312C21.2848 10.0452 22.0846 10.4819 22.7413 10.7338C23.6836 11.1322 24.6742 11.406 25.6878 11.5483C26.5759 11.6322 26.8453 10.3223 26.1255 9.91509Z" fill="black"/>
<path d="M44.5328 32.49C44.1119 31.1381 43.8677 29.7694 43.5605 28.3923C43.1016 26.3813 42.2724 24.005 40.9675 22.3676C39.7039 20.8471 37.9329 19.8319 35.9795 19.5085C34.9416 19.323 33.8896 19.2275 32.8352 19.223C32.5458 19.228 32.2564 19.2182 31.9681 19.1936L32.0312 18.9249C32.5952 16.6452 33.0035 14.3067 33.5045 12.0354C33.8749 10.356 34.1527 8.769 32.2417 7.91672C29.5309 6.72858 26.4413 6.07363 23.6379 5.17937C21.3775 4.46144 17.707 2.58895 15.4508 4.02901C14.3816 4.71334 13.8891 5.94348 13.4977 7.08964C12.6937 9.46593 11.995 11.922 11.3467 14.3445C10.0839 19.0467 8.80011 23.7531 7.55837 28.4637C6.95644 30.8148 6.27032 33.1659 5.72733 35.5338C5.38637 37.0074 5.27693 38.4433 6.50184 39.5391C8.0256 40.9161 10.749 41.1177 12.6558 41.6005C15.2614 42.247 17.8417 42.965 20.443 43.5443C21.3553 43.797 22.3116 43.85 23.2464 43.6997C23.338 44.3643 23.4902 45.0191 23.701 45.6561C24.1682 47.1382 26.5254 46.4958 26.0414 45.0138C25.7557 44.33 25.5864 43.6035 25.5405 42.8642C25.5405 42.4444 26.1508 40.5509 26.8033 40.8993C27.683 41.3864 28.9079 40.5761 28.5754 39.5433C27.6199 36.5792 26.7317 33.5941 25.6289 30.6888C24.606 28.1404 22.6108 25.1973 22.7918 22.3928C22.9265 20.26 24.707 19.2314 26.3487 20.7134C27.4346 21.7001 28.4828 23.3123 29.2741 24.5298C30.8947 27.032 32.0186 30.1011 34.1232 32.2297C34.2597 32.3577 34.4341 32.4382 34.6203 32.4591C34.8064 32.4801 34.9944 32.4403 35.156 32.3457C35.3177 32.2512 35.4442 32.107 35.5168 31.9347C35.5894 31.7624 35.604 31.5713 35.5586 31.39C35.003 29.3915 33.7149 27.6114 32.6752 25.8061C31.9765 24.6054 31.4124 23.2871 30.7979 22.0275L30.8989 21.9184C33.8117 22.6741 37.6001 21.9184 39.2754 24.5676C40.2688 26.142 40.6392 28.3797 41.3548 30.1179C42.1377 32.0071 42.1503 34.396 43.5184 35.9452C43.5939 36.0211 43.6837 36.0814 43.7827 36.1225C43.8817 36.1636 43.9878 36.1848 44.095 36.1848C44.2022 36.1848 44.3084 36.1636 44.4074 36.1225C44.5064 36.0814 44.5962 36.0211 44.6717 35.9452C44.7637 35.8491 44.8315 35.7325 44.8695 35.6052C45.1768 34.4212 44.8864 33.6655 44.5328 32.49ZM21.9373 18.102C19.277 20.4154 19.8663 24.1183 21.0955 27.0068C22.413 30.0717 23.68 33.1239 24.8333 36.2433C24.699 36.359 24.5913 36.5022 24.5176 36.6632C23.9704 37.9605 23.9283 40.0681 22.6781 40.8112C21.3312 41.6089 17.9764 40.2402 16.4568 39.8833L11.393 38.6994C10.5484 38.565 9.71427 38.3714 8.89692 38.12C7.6636 37.6246 7.7099 36.9361 7.95825 35.7269C9.49885 28.3041 11.7466 21.0325 13.8513 13.7735C14.3452 12.0941 14.8475 10.4148 15.3582 8.73541C15.5518 8.11825 15.6907 7.27857 16.0527 6.73277C16.7346 5.74195 17.8164 5.79233 18.9024 6.09882C21.0744 6.71178 23.2422 7.43391 25.3974 8.14344C26.5002 8.5045 27.5988 8.88655 28.6932 9.26441C29.0384 9.38196 31.3198 9.88157 31.4545 10.1041C31.7029 10.4987 30.7979 12.7281 30.6884 13.1437C30.1707 15.1296 29.6403 17.1112 29.2152 19.1181C29.2102 19.152 29.2032 19.1857 29.1941 19.2188V19.2188C27.3883 16.9349 24.3577 15.9944 21.9373 18.102Z" fill="black"/>
</svg>
