<svg width="50" height="50" viewBox="0 0 50 50" fill="none" xmlns="http://www.w3.org/2000/svg">
<path d="M0 0H50V50H0V0Z" />
<path d="M48.4928 38.0589C48.4506 36.1417 48.3853 34.2245 48.3316 32.3074C48.2242 28.5037 48.1232 24.6987 48.0285 20.8925C47.9748 18.8296 48.0554 16.7092 47.8559 14.654C47.7408 13.5037 47.3264 12.4262 46.1217 12.0275C44.587 11.5137 42.588 11.7897 40.9229 11.8664C40.9574 10.4554 41.0955 8.70307 40.3973 7.5451C39.5186 6.07654 37.4928 6.3066 36.0311 6.36028C30.4026 6.57117 24.7664 6.3066 19.1264 6.13405C16.3716 6.04586 13.6168 5.99985 10.8582 6.02669C9.05497 6.05353 6.44215 5.71994 4.86526 6.8204C3.28836 7.92086 3.41881 10.3825 3.73342 12.361C3.58762 14.7077 3.62215 17.0888 3.63366 19.3894C3.65285 23.0589 3.58762 26.8089 3.89072 30.4784C3.63302 30.5807 3.39038 30.7174 3.16942 30.8848C2.11432 31.6517 1.3393 33.1854 1.53113 34.5121C1.95317 37.4416 5.22207 37.4416 7.49342 37.5221C15.1669 37.7445 22.8173 37.4032 30.4755 37.6601C30.5823 37.6631 30.6891 37.6541 30.7939 37.6333L30.8169 38.4232C30.863 39.5735 30.9397 40.8196 31.6226 41.8166C33.188 44.1172 37.2396 43.4308 39.5685 43.3158C41.4332 43.2276 43.3017 43.0781 45.1548 42.8097C46.2022 42.6601 47.1729 42.4032 47.8405 41.4983C48.535 40.509 48.5196 39.2207 48.4928 38.0589ZM30.4601 34.8917C24.9045 34.7575 19.3182 35.0413 13.7396 35.0221C11.5834 35.0221 9.4233 35.0221 7.26705 35.0221C6.58795 35.0221 5.41391 35.2023 4.79619 34.8534C3.98664 34.3741 4.09407 33.9906 4.39717 33.3503C4.52425 33.0767 4.73706 32.8519 5.00338 32.71H5.08779C13.59 32.5451 22.1459 33.0129 30.652 33.0934H30.7172C30.7172 33.7031 30.7172 34.3127 30.744 34.9224C30.6556 34.9044 30.5657 34.8941 30.4755 34.8917H30.4601ZM31.3502 12.7368C31.2349 12.8661 31.1321 13.0061 31.0433 13.1548C30.1911 12.9945 29.3206 12.9544 28.4573 13.0359C27.5826 13.0742 26.3279 13.0359 25.7141 13.7491C25.6403 13.826 25.5934 13.9246 25.5803 14.0303C25.5671 14.136 25.5885 14.2431 25.6412 14.3357C26.1937 15.1026 27.2603 15.2023 28.1466 15.3327C28.8931 15.4742 29.6505 15.5511 30.4102 15.5627C30.4102 15.5972 30.4102 15.6279 30.4102 15.6586C30.4102 16.0229 30.4102 16.391 30.4102 16.7591C29.7043 16.713 28.9868 16.7284 28.2847 16.7284C27.4943 16.7284 26.6464 16.6747 25.9826 17.131C25.8446 17.2167 25.7308 17.3361 25.6519 17.478C25.5729 17.6199 25.5315 17.7796 25.5315 17.942C25.5315 18.1043 25.5729 18.264 25.6519 18.4059C25.7308 18.5478 25.8446 18.6672 25.9826 18.7529C26.6387 19.2092 27.5173 19.1747 28.2847 19.1862C29.006 19.1862 29.7388 19.2245 30.4601 19.1862L30.4946 20.2368C29.7738 20.2075 29.0518 20.2319 28.3346 20.3097C27.5097 20.3595 26.6272 20.3633 25.8982 20.7736C25.768 20.8521 25.6602 20.9629 25.5854 21.0952C25.5105 21.2276 25.4712 21.377 25.4712 21.529C25.4712 21.681 25.5105 21.8304 25.5854 21.9628C25.6602 22.0951 25.768 22.2059 25.8982 22.2844C26.6656 22.6678 27.4982 22.6678 28.3346 22.6678C29.0731 22.7208 29.8147 22.7144 30.5522 22.6486C30.5791 23.9753 30.6021 25.2982 30.6289 26.6248C29.6697 26.3871 28.5341 26.5673 27.5902 26.6517C27.1763 26.6818 26.7684 26.7682 26.3778 26.9086C23.2355 26.8741 20.0933 26.8549 16.9548 26.9086C15.3331 26.9265 13.7102 26.9572 12.086 27.0006C10.7163 27.039 9.31203 26.9278 8.1073 27.6333C8.03737 27.6752 7.97949 27.7345 7.9393 27.8053C7.89912 27.8762 7.878 27.9563 7.878 28.0378C7.878 28.1193 7.89912 28.1994 7.9393 28.2703C7.97949 28.3412 8.03737 28.4004 8.1073 28.4423C9.35807 29.0712 10.7086 28.8986 12.086 28.8833C13.7076 28.8654 15.3306 28.8654 16.9548 28.8833C20.3286 28.8986 23.6985 28.9804 27.0646 29.1287C27.2046 29.1154 27.3404 29.0736 27.4636 29.006H27.9279C28.7719 29.006 29.7925 29.1095 30.6366 28.8564L30.6596 30.5397C22.5296 30.486 14.3458 30.7851 6.21962 30.5397H6.1966C6.1966 26.8242 5.94338 23.0934 5.92419 19.3779C5.92419 16.3833 6.02395 13.3081 5.81293 10.2943C5.81293 10.1946 5.81293 10.0988 5.81293 9.99908C5.81293 9.08651 5.70934 8.67623 6.75677 8.39249C8.53701 7.90553 10.9004 8.22378 12.7421 8.22761C14.8715 8.22761 17.0008 8.2928 19.1302 8.36565C23.1396 8.49985 27.149 8.69157 31.1622 8.71074C33.1382 8.71074 35.1179 8.58037 37.0938 8.59954C38.2679 8.59954 38.429 8.63789 38.4712 9.74985C38.4981 10.4439 38.4712 11.1456 38.4712 11.8396C36.0809 11.5252 32.8773 11.1149 31.3502 12.7368ZM46.2061 38.9485C45.8224 41.1187 43.2671 40.8925 41.437 41.0535C39.696 41.2107 37.947 41.2606 36.1999 41.2031C35.5591 41.1762 34.5309 41.2798 33.9554 40.881C33.1113 40.2943 33.188 39.3051 33.1382 38.4232C32.9924 34.9722 33 31.4945 32.931 28.0359C32.8619 24.5773 32.7967 21.1341 32.7276 17.6525C32.7008 16.2529 32.3746 14.585 33.6561 14.0137C33.7149 14.0178 33.7738 14.0178 33.8326 14.0137C35.5553 14.0137 37.2857 14.075 38.9968 14.1325C40.662 14.19 42.5151 14.0098 44.1573 14.2744C45.5884 14.5083 45.4656 15.0413 45.5116 16.4025C45.5346 17.1489 45.5589 17.894 45.5845 18.6379C45.6382 20.3787 45.6945 22.1182 45.7533 23.8564C45.8608 27.2665 45.9669 30.6765 46.0718 34.0865C46.1178 35.5972 46.4555 37.4761 46.2061 38.9485Z" fill="#1D1D1B"/>
<path d="M39.334 34.6503C39.132 34.6865 38.9393 34.7629 38.7673 34.8749C38.5953 34.9868 38.4475 35.1321 38.3327 35.3022C38.0614 35.4156 37.815 35.581 37.6075 35.7891C37.33 36.0718 37.129 36.4204 37.0236 36.8021C36.9182 37.1838 36.9119 37.586 37.0051 37.9709C37.0931 38.339 37.2719 38.6792 37.5252 38.9606C37.7786 39.2419 38.0984 39.4553 38.4554 39.5813C39.2688 39.8497 40.1474 39.5353 40.8342 39.0944C42.1502 38.247 42.695 36.4755 41.4941 35.26C41.2161 34.9826 40.8716 34.781 40.4935 34.6742C40.1154 34.5675 39.7162 34.5593 39.334 34.6503V34.6503ZM39.3954 37.6143C38.9657 37.7447 38.9696 37.3957 39.1652 37.0928C39.2242 37.0049 39.2883 36.9204 39.3571 36.8398L39.4415 36.8091C39.5719 36.7707 39.7369 36.6519 39.8635 36.6519C39.9059 36.6472 39.9488 36.6532 39.9883 36.6693C40.0279 36.6854 40.0628 36.711 40.0899 36.7439C40.4275 37.112 39.6563 37.5338 39.3954 37.6143Z" fill="#1D1D1B"/>
<path d="M42.507 29.5621C40.274 29.5621 37.807 29.3665 35.6239 29.8842C34.7607 30.0912 34.8297 31.3259 35.6239 31.5636C37.7648 32.2116 40.2971 32.0391 42.507 31.9164C44.011 31.8282 44.034 29.5659 42.507 29.5621Z" fill="#1D1D1B"/>
<path d="M12.2429 12.2577C11.3145 12.8408 10.5471 13.647 10.011 14.6029C9.47477 15.5587 9.18684 16.6336 9.17348 17.7293C9.17348 22.1043 13.5167 25.3443 17.7179 24.4433C22.2184 23.4809 25.0614 18.2355 22.5752 14.1212C20.5647 10.7891 15.2355 9.86889 12.2429 12.2577ZM16.0067 22.3881C15.3112 22.3654 14.6296 22.1881 14.0112 21.8692C13.3929 21.5502 12.8534 21.0976 12.4319 20.5443C12.0105 19.9909 11.7177 19.3507 11.5749 18.6701C11.432 17.9895 11.4426 17.2857 11.606 16.6097C11.7471 15.9964 12.0194 15.4209 12.404 14.9226C12.6112 14.8495 12.7916 14.7159 12.922 14.5391C13.1122 14.2837 13.3429 14.0609 13.6049 13.8796C13.9237 13.6908 14.2604 13.5341 14.6101 13.4118C15.0573 13.2889 15.52 13.232 15.9837 13.2431C15.7758 13.9498 15.6231 14.6715 15.5271 15.4019C15.3852 16.2914 15.1434 17.342 15.5271 18.2009C15.8225 18.8643 16.3712 19.1212 17.0349 19.3513C18.0478 19.7347 19.0377 20.1373 20.0583 20.5016C19.5664 21.1028 18.9446 21.5849 18.2395 21.9117C17.5345 22.2384 16.7646 22.4013 15.9875 22.3881H16.0067ZM21.0674 18.2891C21.011 18.2632 20.9534 18.2401 20.8947 18.2201C20.2616 18.0437 19.6324 17.8789 18.9763 17.7447C18.6489 17.7104 18.3252 17.6462 18.0095 17.5529C17.4877 17.3305 17.6258 17.4763 17.5644 16.9586C17.4109 15.8735 17.8215 14.7309 17.9788 13.6151C19.1989 14.056 20.2808 14.8536 20.7182 15.839C21.0806 16.6014 21.2024 17.4559 21.0674 18.2891V18.2891Z" fill="#1D1D1B"/>
<path d="M41.1527 17.388C41.026 17.3627 40.8979 17.3461 40.769 17.3382C38.0219 16.115 34.0777 20.2408 34.2465 22.8673C34.5113 26.6211 38.8506 28.1932 41.8011 26.2454C43.3818 25.2063 44.1261 23.2469 43.9611 21.4064C43.8269 19.8037 42.9137 17.7484 41.1527 17.388ZM37.9989 24.8727C37.6232 24.7396 37.2825 24.5233 37.0025 24.2399C36.7224 23.9566 36.5102 23.6135 36.3817 23.2364C36.2532 22.8594 36.2119 22.4582 36.2607 22.0629C36.3095 21.6676 36.4473 21.2885 36.6637 20.954C37.0823 20.2347 37.7174 19.6657 38.4785 19.3282C38.0372 21.1648 38.7662 23.6879 40.5771 24.2783C40.239 24.5975 39.8219 24.8207 39.3687 24.9252C38.9155 25.0297 38.4427 25.0115 37.9989 24.8727ZM41.6092 22.3842C41.4143 22.3333 41.2095 22.3333 41.0145 22.3842C40.3431 22.526 40.0247 19.8612 40.6309 19.6349C41.2371 19.4087 41.6591 21.8052 41.6438 22.1273C41.6375 22.2135 41.626 22.2993 41.6092 22.3842V22.3842Z" fill="#1D1D1B"/>
</svg>
