<svg width="50" height="50" viewBox="0 0 50 50" fill="none" xmlns="http://www.w3.org/2000/svg">
<path d="M0 0H50V50H0V0Z" />
<path d="M31.1197 6.00447C25.7108 6.37724 20.3094 6.79847 14.9005 7.17869C12.6005 7.34271 9.1561 6.96994 7.24006 8.55794C5.14509 10.2913 6.07702 13.9146 6.18885 16.2407C6.53925 23.6141 6.8909 30.9887 7.24379 38.3646C7.35935 40.8323 6.94184 44.3289 8.94735 46.1928C10.7776 47.9 13.6144 47.5049 15.8809 47.3409L37.6059 45.8088C38.6273 45.7343 39.2349 44.2618 38.1688 43.725C36.2154 42.7409 36.4167 40.303 38.5825 39.7737C39.8089 39.4717 39.5443 37.5631 38.2843 37.5743C32.0852 37.6377 25.9121 37.9956 19.7316 38.51C16.9619 38.7411 13.5697 38.5323 10.9752 39.6842C9.01817 40.5528 7.67993 42.6664 8.48884 44.7837C8.99581 46.1182 11.1579 45.5292 10.6472 44.191C9.46922 41.1007 14.9974 41.1492 16.7457 41.0001C19.1836 40.7913 21.6178 40.5826 24.0557 40.4037C28.7948 40.0532 33.5377 39.8557 38.2843 39.8109L37.9898 37.6153C37.1165 37.8019 36.3236 38.2573 35.7222 38.9175C35.1209 39.5778 34.7414 40.4097 34.637 41.2966C34.5325 42.1835 34.7084 43.0808 35.1399 43.8627C35.5714 44.6445 36.2369 45.2716 37.043 45.656L37.6059 43.5722L21.793 44.6905C19.0979 44.8806 16.3916 45.1602 13.689 45.2534C12.5259 45.2907 11.1802 45.3056 10.3639 44.3662C9.33875 43.1845 9.61833 40.9628 9.53259 39.4755L8.63795 20.6655C8.50002 17.6833 8.12725 14.6229 8.21299 11.637C8.28754 8.91953 13.8045 9.49359 15.7616 9.35567C20.8834 8.9829 25.9978 8.58031 31.1197 8.23736C32.5511 8.14044 32.5623 5.90382 31.1197 6.00074V6.00447Z" fill="black"/>
<path d="M10.7068 9.55325L12.8726 39.2965C12.977 40.7205 15.2136 40.7317 15.1092 39.2965L12.9434 9.55325C12.8391 8.12554 10.6024 8.11436 10.7068 9.55325V9.55325Z" fill="black"/>
<path d="M35.3954 17.6386C36.6031 24.5647 36.6963 31.5056 37.2816 38.5137C37.4009 39.9377 39.6375 39.9489 39.5182 38.5137C38.9143 31.3044 38.795 24.1695 37.55 17.0347C37.3039 15.6219 35.1493 16.2221 35.3954 17.6312V17.6386Z" fill="black"/>
<path d="M20.7119 32.1505L29.6994 31.4982C30.8886 31.4125 30.896 29.5523 29.6994 29.6343L20.7119 30.2904C19.5228 30.3799 19.5153 32.24 20.7119 32.1543V32.1505Z" fill="black"/>
<path d="M20.958 35.5279L29.9455 34.8755C31.1346 34.7898 31.142 32.9297 29.9455 33.0117L20.958 33.6677C19.7688 33.7572 19.7614 35.6173 20.958 35.5316V35.5279Z" fill="black"/>
<path d="M13.9909 44.3438C21.2189 43.8033 28.4208 42.8975 35.6488 42.357C36.8342 42.2675 36.8454 40.4074 35.6488 40.4931C28.4208 41.0336 21.2189 41.9395 13.9909 42.48C12.8055 42.5694 12.7943 44.4296 13.9909 44.3438V44.3438Z" fill="black"/>
<path d="M38.6944 2.657C34.1727 2.24322 29.7479 5.0129 28.9427 9.6427C28.2121 13.8699 31.239 18.153 35.6153 18.4624C40.1258 18.7681 44.3493 14.6863 44.9345 10.3547C45.5086 6.0902 42.2357 2.29168 37.8966 2.4967C36.4503 2.56753 36.4428 4.82651 37.8966 4.75569C41.0689 4.61031 43.2794 7.34271 42.6383 10.4516C41.9971 13.5605 38.7987 16.5949 35.5072 16.1774C32.2864 15.7673 30.4785 12.4497 31.2949 9.4675C32.2007 6.14239 35.4624 4.62149 38.6944 4.91971C40.1407 5.05018 40.1333 2.79119 38.6944 2.657V2.657Z" fill="black"/>
<path d="M36.0067 7.49926C36.0713 8.01484 36.0838 8.53562 36.044 9.05371C36.0348 9.69986 36.1126 10.3443 36.2751 10.9697C36.6479 12.3751 38.8248 11.7787 38.4521 10.3696C38.1538 9.23264 38.4148 8.05469 38.1837 6.8991C37.9004 5.47885 35.7122 6.07901 36.0067 7.49926Z" fill="black"/>
<path d="M37.1474 14.7459C38.6012 14.7459 38.6012 12.4869 37.1474 12.4869C35.6936 12.4869 35.6899 14.7459 37.1474 14.7459Z" fill="black"/>
</svg>
