<?xml version="1.0" encoding="UTF-8"?>
<svg width="601px" height="169px" viewBox="0 0 601 169" version="1.1" xmlns="http://www.w3.org/2000/svg" xmlns:xlink="http://www.w3.org/1999/xlink">
    <!-- Generator: Sketch 63.1 (92452) - https://sketch.com -->
    <title>g2-crowd-vector-logo</title>
    <desc>Created with Sketch.</desc>
    <g id="Page-1" stroke="none" stroke-width="1" fill="none" fill-rule="evenodd">
        <g id="g2-crowd-vector-logo" fill="#456372">
            <path d="M128.3,38.5 C126.6,40.4 124.6,42.3 122.5,44.4 L114.2,52.3 L138.3,52.3 L138.3,62.1 L99.5,62.1 L99.5,57 L113,40.7 C115.5,38.2 117.6,36 119.1,34.1 C120.6,32.3 122.4,30.1 123.2,28.7 C124.2,27.1 129.3,22.2 128.8,16.1 C126.6,9.3 120.3,8.7 116.6,9.2 C112.8,9.3 108.4,14.4 107.7,18.8 C107.7,18.8 100.8,17.8 99.3,17.1 C99.4,15.2 102.7,6.9 109.1,3.2 C112.2,1.8 114.2,1.1 117.8,1.1 C120.6,1.1 123.1,1.5 125.4,2.2 C127.7,2.9 129.6,4 131.2,5.4 C132.8,6.8 135.5,8.5 136.3,10.6 C137.6,13.3 138.6,16.1 138.6,18.9 C138.9,25.1 133.6,31.2 132.6,32.8 C131.4,34.8 130,36.7 128.3,38.5 M83.3,168.7 C37.3,168.7 0.1,131.4 0.1,85.5 C0.1,39.5 37.4,2.3 83.3,2.3 L83.3,31.7 C53.6,31.7 29.5,55.8 29.5,85.5 C29.5,115.2 53.6,139.4 83.3,139.4 C106.9,139.4 126.9,124.2 134.2,103.1 C119.8,103.1 99.4,103 99.4,103 L99.4,72.2 C99.4,72.2 162.3,72.2 165.5,72.2 C166.2,76.5 166.6,81 166.6,85.5 C166.5,131.5 129.3,168.7 83.3,168.7 M194.5,0.9 L200.1,0.9 L200.1,167.3 L194.5,167.3 L194.5,0.9 Z M275.8,123.8 C271,126.7 265,128.2 258,128.2 C250.7,128.2 244.6,127 239.9,124.5 C235.1,122 232,118.6 230.4,114.2 C228.9,109.8 228.1,103.2 228.1,94.4 L228.1,68.1 C228.1,61.6 228.3,56.8 228.8,53.5 C229.3,50.3 230.7,47.1 233.1,44.1 C235.5,41.1 238.7,38.7 242.9,37 C247.1,35.3 251.9,34.4 257.3,34.4 C264.7,34.4 270.8,35.7 275.6,38.4 C280.4,41.1 283.5,44.4 285.1,48.4 C286.6,52.4 286.9,51.2 286.9,59.6 L286.9,66.6 L266.5,66.3 L266.5,60.2 C266.5,55.6 266,52.7 264.9,51.5 C263.8,50.4 261.5,49.8 258,49.8 C253.9,49.8 251.4,50.5 250.3,51.9 C249.2,53.3 248.7,56.3 248.7,60.9 L248.7,102 C248.7,106.4 249.2,109.3 250.3,110.7 C251.4,112.1 253.8,112.7 257.7,112.7 C261.4,112.7 263.7,112 264.9,110.7 C266,109.3 266.6,107.5 266.6,102.5 L266.5,96 L287,96 L287,97.4 C287,106.7 286.7,109.7 285.3,113.5 C283.7,117.4 280.6,120.9 275.8,123.8 M334.1,58.2 C334.1,55.4 332.7,52.1 330,51.2 C327.3,50.3 323.8,49.9 316.6,49.9 L316.6,75.4 C323.6,75.4 327.1,75 329.8,74.3 C332.6,73.6 334,67.1 334,63.1 L334,58.2 L334.1,58.2 Z M334.1,98.5 C334.1,93.7 333.1,90.8 331.1,89.6 C329.1,88.5 325.2,87.9 316.7,87.9 L316.7,126.8 L296.6,126.8 L296.9,36.4 L315,36.4 C327.1,36.4 335.3,36.8 339.6,37.7 C343.9,38.6 347.4,40.7 350.1,44.2 C352.8,47.7 354.2,53.3 354.2,61 C354.2,68 353,74.3 351.2,76.7 C349.3,79.1 345.6,80.6 340.1,81.1 C345.1,82.3 348.5,83.8 350.2,85.7 C351.9,87.6 353,89.4 353.4,91 C353.8,92.6 354.3,95.3 354.3,102.6 L354.3,126.3 L334.3,126.8 L334.3,98.5 L334.1,98.5 Z M405.7,59.6 C405.7,55.4 405,52.8 403.7,51.6 C402.4,50.4 399.6,49.9 395.5,49.9 C392,49.9 389.3,50.4 387.4,51.3 C385.5,52.2 384.6,55 384.6,59.6 L384.6,101.4 C384.6,106.6 385.2,109.8 386.4,111 C387.6,112.2 390.5,112.8 394.9,112.8 C399.5,112.8 402.4,112.1 403.7,110.7 C405,109.3 405.6,106 405.6,100.7 L405.6,59.6 L405.7,59.6 Z M421.4,118.5 C418.9,121.6 415.4,124 411.1,125.7 C406.8,127.4 401.7,128.2 395.9,128.2 C390.4,128.2 385.5,127.4 381.1,125.8 C376.7,124.2 373.2,121.9 370.6,118.7 C367.9,115.6 366.4,112.1 365.9,108.4 C365.4,104.7 365.1,98.2 365.1,88.9 L365.1,73.5 C365.1,64.5 365.3,58.1 365.8,54.3 C366.3,50.5 367.8,47.1 370.4,44 C373,40.9 376.4,38.5 380.7,36.8 C385,35.1 390.1,34.3 395.9,34.3 C401.4,34.3 406.3,35.1 410.7,36.7 C415.1,38.3 418.6,40.6 421.2,43.8 C423.8,46.9 425.4,50.4 425.9,54.1 C426.4,57.8 426.7,64.3 426.7,73.5 L426.7,89 C426.7,98 426.5,104.4 426,108.2 C425.5,112 424,115.4 421.4,118.5 M496,126.3 C493.1,112.5 486.3,78.6 484,60.9 C483,68.5 475,102.4 471.3,126.3 L449.3,126.3 L432.2,36.3 L451.5,36.3 L457,67.7 L461,105 C461.9,89.3 469.9,61.7 473.7,36.3 L496.1,36.3 C496.4,38.9 500.2,48.8 501.7,66 L507.3,104.4 C508.8,82.6 513.9,57.1 517.3,36.3 L535.2,36.3 L516.8,126.3 L496,126.3 L496,126.3 Z M580.5,62.3 C580.5,58.3 580.2,55.7 579.6,54.5 C579,53.4 577.5,52.5 575.2,52 C572.9,51.5 568.7,51.2 562.4,51.2 L562.4,111.3 C570.7,111.3 575.7,110.6 577.7,109.3 C579.6,108 580.6,104.3 580.6,98.3 L580.6,62.3 L580.5,62.3 Z M598.8,115.8 C598,118.5 596.5,120.7 594.4,122.2 C592.3,123.7 589.8,124.8 586.7,125.4 C583.7,126 580.5,126.3 574.3,126.3 L542,126.3 L542,36.3 L561.2,36.3 C573.6,36.3 580.6,36.8 584.9,37.9 C589.3,38.9 592.6,40.6 594.9,43 C597.2,45.4 598.6,48 599.2,50.9 C599.8,53.8 600,59.5 600,68 L600,99.5 C600.1,107.6 599.7,113 598.8,115.8" id="Shape"></path>
        </g>
    </g>
</svg>